<svg width="16" height="20" viewBox="0 0 16 20" fill="none" xmlns="http://www.w3.org/2000/svg">
<path d="M8 2.00004C7.76086 1.9982 7.52612 2.06715 7.32305 2.19889C7.11998 2.33062 6.95691 2.51973 6.85278 2.74426L5.07515 6.50207L1.09747 7.10446C0.860881 7.14001 0.638562 7.24394 0.455694 7.40448C0.272826 7.56502 0.136715 7.77576 0.0627761 8.01282C-0.0111626 8.24988 -0.0199749 8.5038 0.0373377 8.74581C0.0946502 8.98783 0.215797 9.20827 0.387059 9.38218L3.26711 12.3073L2.5871 16.4389C2.54665 16.6843 2.57283 16.9367 2.66268 17.1674C2.75253 17.3981 2.90246 17.598 3.09554 17.7445C3.28861 17.891 3.51714 17.9783 3.75527 17.9964C3.99341 18.0146 4.23168 17.9629 4.44313 17.8473L8 15.8966V2.00004Z" fill="#FFAD33"/>
<path d="M7.89999 2.00004C8.13914 1.9982 8.37388 2.06715 8.57695 2.19889C8.78002 2.33062 8.94308 2.51973 9.04722 2.74426L10.8248 6.50207L14.8025 7.10446C15.0391 7.14001 15.2614 7.24394 15.4443 7.40448C15.6272 7.56502 15.7633 7.77576 15.8372 8.01282C15.9112 8.24988 15.92 8.5038 15.8627 8.74581C15.8053 8.98783 15.6842 9.20827 15.5129 9.38218L12.6329 12.3073L13.3129 16.4389C13.3533 16.6843 13.3272 16.9367 13.2373 17.1674C13.1475 17.3981 12.9975 17.598 12.8045 17.7445C12.6114 17.891 12.3829 17.9783 12.1447 17.9964C11.9066 18.0146 11.6683 17.9629 11.4569 17.8473L7.89999 15.8966V2.00004Z" fill="#FFAD33" fill-opacity="0.25"/>
</svg>
